<svg width="238" height="57" viewBox="0 0 238 57" fill="none" xmlns="http://www.w3.org/2000/svg">
<path d="M54.3833 12.5198C58.8005 19.9772 57.876 31.2669 52.5342 37.8958C46.5761 45.8711 36.7144 49.289 27.0581 46.5961C18.2236 44.3174 11.0328 35.8243 10.2109 26.6061C9.08096 16.87 13.6009 8.06608 21.7163 3.19804C27.9826 -0.737823 37.6389 -1.15212 44.2134 2.57659C48.3224 4.44094 52.3288 8.48038 54.3833 12.5198ZM34.2489 1.12653C34.3517 2.05871 34.3517 3.30161 34.2489 4.23379C34.2489 4.13022 34.4544 4.13022 34.5571 4.02664C34.8653 4.13022 34.8653 4.54452 34.7626 4.75167H34.6598C36.2007 4.64809 37.7416 5.06239 39.1798 5.4767C40.7207 5.68385 42.0561 7.5482 43.4943 6.51245C43.9052 6.92675 44.6243 6.51245 44.8297 7.23747C45.4461 7.34105 45.7543 7.9625 46.0625 8.27323C46.0625 8.7911 46.4734 8.99826 46.6788 9.41256V9.30898C47.1925 8.3768 48.0143 7.65178 48.8361 7.1339C45.857 4.33737 41.9534 2.36944 37.7416 1.54083C36.6116 1.33368 35.3789 1.43726 34.2489 1.12653ZM18.3263 7.34105L20.8945 9.82686C24.1817 6.61602 28.2908 4.85524 32.9135 4.64809C32.708 3.50876 32.8108 2.26586 32.9135 1.12653C27.2635 1.54083 22.4354 3.61234 18.3263 7.34105ZM50.7879 1.95513L52.4315 3.61234C54.1779 6.3053 56.5406 8.89468 58.9033 10.5519C58.3896 9.51613 58.2869 8.27323 57.7733 7.1339C56.746 4.23379 53.4588 2.88731 50.7879 1.95513ZM16.3745 2.26586C14.32 3.09446 12.06 3.81949 10.4164 5.78742C9.18368 7.34105 8.8755 9.30898 8.25915 11.0698L10.1082 9.51613C12.8818 7.5482 13.6009 4.33737 16.3745 2.26586ZM36.9198 2.99089L35.3789 3.71592C35.1735 3.81949 34.6598 3.50876 34.7626 4.02664C35.0707 4.23379 35.3789 4.44094 35.7898 4.44094C36.8171 4.02664 37.9471 4.75167 38.7689 3.81949C38.4607 3.09446 37.6389 3.09446 36.9198 2.99089ZM57.1569 5.06239C59.5196 6.61602 59.3142 9.51613 60.136 11.7948C60.3414 12.727 60.9578 13.6591 61.0605 14.5913C59.8278 10.9662 55.616 10.5519 54.0751 7.1339L54.5888 9.10183C55.8215 13.0377 60.4442 13.9699 62.1905 17.4914C61.6769 14.902 62.6014 12.2091 61.8823 9.72328C61.0605 7.5482 59.3142 5.68385 57.1569 5.06239ZM6.20462 8.48038C4.45827 11.0698 5.89644 14.7985 5.38281 17.9057C5.99917 16.6628 7.23188 15.4199 8.36187 14.4877C10.8273 12.8305 13.0873 10.3447 13.19 7.44463C11.8546 10.8626 7.54006 11.2769 6.41007 14.902H6.30734C7.95097 11.8984 7.02643 7.65178 10.1082 5.37312C8.36187 5.891 7.02643 7.1339 6.20462 8.48038ZM34.2489 5.891C34.4544 7.03032 34.3517 8.3768 34.2489 9.41256C37.0225 9.41256 39.6934 10.3447 41.8507 12.0019C41.6452 11.8984 41.4398 11.4841 41.4398 11.1733H41.5425C41.5425 10.759 41.0289 10.5519 41.2343 10.2412C41.748 10.2412 42.1589 10.9662 42.467 11.3805C44.0079 11.3805 43.0834 13.1413 44.2134 13.7627C44.5216 13.8663 44.1107 14.4877 44.5216 14.3842C44.8297 14.6949 45.3434 15.0056 45.2407 15.4199C45.3434 16.2485 45.9597 15.2128 46.3706 15.7307C46.6788 15.9378 46.1652 16.145 46.2679 16.4557C46.4734 16.5593 46.6788 16.2485 46.7816 16.4557C46.8843 16.7664 46.6788 16.87 46.4734 16.9736C46.3706 17.3879 46.8843 17.1807 47.0897 17.3879C47.2952 17.9057 47.5006 18.7343 47.0897 19.3558C47.6034 19.9772 46.987 20.5987 46.8843 21.1166C46.4734 21.5309 46.4734 22.3595 45.6516 22.1523C45.4461 22.463 45.7543 22.7738 45.5488 23.0845L46.8843 23.1881C46.1652 22.1523 47.0897 21.1166 47.3979 20.1844C47.5006 20.0808 47.7061 19.7701 47.9115 20.0808C47.8088 20.4951 47.8088 21.013 47.8088 21.3237C48.117 21.8416 48.0143 22.5666 48.117 23.1881L51.507 23.0845C51.3015 20.8058 50.7879 18.6308 49.8633 16.6628C49.6579 16.7664 49.3497 16.9736 49.0415 16.7664C48.6306 16.2485 48.3224 15.6271 47.8088 15.2128C47.3979 15.2128 47.0897 14.902 46.6788 14.5913C45.9597 14.5913 46.1652 13.452 45.4461 13.6591C45.0352 13.452 44.727 13.2448 44.6243 12.8305C44.6243 12.3127 44.5216 11.5876 44.0079 11.2769C43.6998 11.1733 43.4943 11.2769 43.2889 11.4841C42.8779 11.7948 42.6725 11.2769 42.6725 10.9662C42.2616 10.6555 42.6725 10.2412 42.467 9.82686C41.8507 9.30898 42.1589 8.27323 41.2343 7.85893C39.7962 7.1339 38.2553 6.7196 36.6116 6.40887C35.8925 6.20172 34.968 6.09815 34.2489 5.891ZM44.2134 5.891C44.0079 5.891 44.1107 6.20172 44.2134 6.3053C44.8298 6.3053 44.8297 7.34105 45.4461 6.92675L45.3434 6.20172C45.1379 5.891 44.5216 6.09815 44.2134 5.891ZM21.6136 10.759C22.5381 11.3805 23.3599 12.3127 24.079 13.1413C26.4417 10.8626 29.5235 9.51613 32.9135 9.41256C32.8108 8.27323 32.8108 7.1339 32.9135 5.99457C28.7017 6.40887 24.7981 7.9625 21.6136 10.759ZM49.7606 8.06608L47.5006 10.5519H47.0897C47.3979 10.5519 47.2952 10.8626 47.5006 11.0698C48.4252 11.7948 48.9388 12.727 49.7606 13.452C50.0688 14.177 50.8906 14.6949 50.8906 15.6271C52.0206 17.9057 52.5342 20.4951 52.7397 23.0845C53.8697 22.9809 55.2051 22.8773 56.2324 22.9809L56.1297 22.8773C55.8215 17.0771 53.5615 12.2091 49.7606 8.06608ZM17.6073 8.48038L17.5045 8.16965C13.7036 12.3127 11.6491 17.4914 11.3409 23.1881H14.9364C14.8336 22.0487 15.1418 20.9094 15.2445 19.7701C15.9636 16.4557 17.4018 13.2448 19.97 10.759L17.6073 8.48038ZM62.1905 9.30898C63.8341 11.6912 62.9096 15.1092 62.8069 17.9057C62.9096 19.2522 63.115 20.5987 63.0123 21.9452C62.8069 21.4273 62.8069 20.8058 62.6014 20.288C61.9851 17.2843 58.3896 15.7306 56.9515 13.2448C57.1569 14.0734 57.3624 15.0056 57.6705 15.8342C58.9033 19.4594 62.6014 21.8416 63.1151 25.7775C63.4232 22.0487 65.9914 19.0451 65.0668 15.0056C64.5532 12.8305 63.7314 10.8626 62.1905 9.30898ZM4.86918 9.82686C3.63646 11.3805 2.71192 13.1413 2.30101 15.1092C1.4792 19.1486 3.84191 22.3595 4.45827 26.0882C5.17735 21.4273 10.0055 18.4236 10.3137 13.5556C8.8755 16.145 5.38281 17.6986 4.76645 20.8058C4.76645 21.3237 4.66372 21.8416 4.45827 22.2559L4.35554 22.1523L4.561 20.1844C5.07463 16.6628 3.0201 12.9341 4.86918 9.82686ZM33.0162 10.6555L32.9135 10.759C29.8317 10.9662 27.3663 12.3127 25.0036 14.177C25.9281 14.7985 26.6472 15.7306 27.469 16.4557C28.9072 15.0056 30.859 14.177 32.9135 14.177C32.9135 13.0377 32.8108 11.6912 33.0162 10.6555ZM34.2489 10.6555C34.4544 11.6912 34.3517 12.9341 34.3517 13.9699C36.4062 14.0734 38.5634 15.0056 40.0016 16.3521C40.7207 15.5235 41.6452 14.4877 42.467 13.9699C40.1043 12.1055 37.3307 10.8626 34.2489 10.6555ZM20.7918 11.4841V11.6912C18.0182 14.902 16.4773 18.7343 16.1691 23.0845C17.2991 23.0845 18.5318 23.0845 19.6618 23.0845L19.5591 22.9809C19.7645 19.5629 20.9972 16.4557 23.3599 13.9699C22.3327 13.2448 21.5109 12.4162 20.7918 11.4841ZM43.1861 14.7985C42.1589 16.0414 40.8234 17.2843 39.8989 18.4236C40.0016 18.5272 40.1043 18.7343 40.2071 18.7343C40.5152 18.4236 40.3098 17.595 41.0289 17.6986C41.748 17.9057 42.3643 17.9057 43.1861 18.0093C43.597 18.2165 43.6998 18.7343 44.1107 19.0451C44.3161 19.2522 44.0079 19.4594 44.0079 19.5629C44.1107 19.6665 44.2134 19.7701 44.2134 19.8737C44.4188 19.6665 44.727 19.4594 45.1379 19.5629C45.5488 19.5629 45.6516 20.1844 46.0625 20.288C46.2679 20.4951 45.9597 20.7023 45.7543 20.8058C45.857 21.2201 45.3434 21.3237 45.5488 21.738C45.7543 21.738 45.9597 21.6344 46.0625 21.5309C46.8843 20.9094 46.2679 20.0808 46.0625 19.3558C45.7543 18.6308 45.0352 18.5272 44.5216 18.0093C44.5216 17.8022 44.6243 17.595 44.8297 17.3879C44.727 16.2485 43.6998 15.6271 43.1861 14.7985ZM24.079 14.902C23.3599 15.8342 22.6408 16.87 22.1272 17.9057C21.3054 19.4594 20.9972 21.3237 20.689 23.1881H22.1272C21.9218 22.8773 21.9218 22.463 21.9218 22.1523C22.2299 21.4273 22.3327 20.1844 23.4627 20.288C23.9763 20.1844 23.4627 19.7701 23.8736 19.5629C24.5926 19.4594 24.7981 18.7343 25.4145 18.4236C26.0308 18.32 26.1335 17.4914 26.7499 17.4914C25.7226 16.6628 25.0036 15.7306 24.079 14.902ZM34.3517 15.3163L34.4544 17.6986L35.3789 18.0093C35.6871 17.595 36.098 17.3879 36.4062 17.0771C36.7144 16.9736 36.7144 17.2843 36.8171 17.3879C37.0225 18.4236 35.7898 18.9415 35.1735 19.3558H35.4816C36.2007 18.6308 36.5089 20.288 37.228 19.4594C37.3307 18.5272 38.6662 18.6308 38.8716 17.8022C38.6662 18.0093 38.5634 17.8022 38.358 17.6986C38.4607 17.3879 38.8716 17.1807 39.0771 16.9736C37.5362 16.145 35.9953 15.6271 34.3517 15.3163ZM32.9135 15.4199C31.0644 15.7306 29.3181 16.3521 27.9826 17.8022C28.3935 17.9057 28.9072 18.1129 29.2153 18.4236C29.3181 18.6308 29.0099 18.6308 29.0099 18.8379C29.3181 19.2522 29.3181 18.7343 29.6262 18.7343C29.9344 19.0451 30.1399 19.1486 30.5508 19.0451C30.7562 19.3558 31.0644 19.0451 31.2699 19.0451C31.3726 18.7343 31.6808 18.5272 31.578 18.2165C31.6808 18.0093 31.7835 17.595 32.0917 17.595C31.8862 18.6308 32.8108 17.595 33.1189 18.1129C32.8108 17.1807 33.0162 16.145 32.9135 15.4199ZM65.8887 17.9057C66.505 21.5309 64.3478 24.2238 63.4232 27.3311C62.9096 28.574 63.115 30.024 62.396 31.0598C62.396 30.4383 62.7041 29.9205 62.7041 29.1954C63.2178 25.156 59.8278 22.7738 59.006 19.4594C59.006 20.3915 59.006 21.2201 59.1087 22.0487C59.3142 26.2953 62.0878 29.7133 61.266 34.1671C62.0878 33.1313 62.6014 32.0955 63.6287 31.0598C66.9159 27.7454 67.7377 22.1523 65.8887 17.9057ZM1.4792 18.4236C0.349213 21.1166 0.451939 24.6381 1.27375 27.3311C1.99284 30.2312 4.76645 32.1991 6.10189 34.6849C5.89644 33.6492 5.89644 32.3027 6.10189 31.2669C7.02643 27.5382 8.4646 24.0167 8.25915 19.8737C7.74551 22.8773 5.07463 24.9489 4.76645 27.9525C4.561 29.1954 4.86917 30.4383 5.07463 31.4741C4.76645 30.9562 4.561 30.2312 4.45827 29.6097C4.04736 25.6739 0.862845 22.7738 1.4792 18.4236ZM32.8108 19.7701C32.9135 20.1844 33.2217 20.7023 32.9135 20.9094C32.5026 21.4273 31.578 21.3237 31.4753 22.0487C30.4481 22.3595 30.859 23.6024 30.5508 24.431C29.9344 24.5346 30.1399 23.8095 29.8317 23.4988L29.729 23.7059C28.7017 22.9809 28.9072 24.6381 28.2908 24.7417C29.0099 24.8453 29.6262 24.5346 30.2426 24.431C30.2426 24.5346 30.4481 24.5345 30.3453 24.7417H30.4481C30.5508 24.6381 30.6535 24.431 30.5508 24.1202C30.6535 23.9131 30.859 23.8095 31.0644 23.9131C30.9617 24.1203 31.1671 24.3274 31.3726 24.431L30.9617 24.9489C30.7562 25.156 30.9617 25.7775 30.5508 25.7775C30.448 25.7775 30.3453 25.6739 30.4481 25.5703H30.3453L30.6535 26.0882C30.9617 26.0882 30.859 25.4667 31.2699 25.4667C31.578 25.3632 31.6808 24.9489 31.578 24.6381C31.9889 24.2238 32.6053 24.5346 33.1189 24.431C33.2217 24.5346 33.5298 24.6381 33.5298 24.8453C33.7353 25.2596 33.4271 25.6739 33.1189 25.9846C33.2217 26.1918 33.0162 26.3989 33.0162 26.6061C32.6053 27.0204 32.0917 26.8132 31.578 27.0204C32.2971 27.5382 33.0162 27.849 33.9408 27.7454C34.8653 27.849 34.3517 26.7096 35.0707 26.2953C35.4816 26.2953 35.7898 26.2953 36.2007 26.1918C36.4062 25.881 36.4062 25.4667 36.5089 25.0524C36.098 24.8453 36.3035 24.5345 36.2007 24.2238C35.9953 23.9131 35.9953 23.4988 35.5844 23.3952C35.4816 23.1881 35.7898 23.0845 35.6871 22.7738C36.3035 22.5666 35.3789 22.1523 35.7898 21.738C35.0707 21.6344 34.8653 20.3915 33.9408 20.8058C33.7353 20.4951 33.1189 20.3915 33.1189 19.8737C33.2217 19.5629 33.9407 19.6665 33.838 19.7701C33.838 19.6665 33.7353 19.6665 33.7353 19.5629C33.3244 19.6665 33.0162 19.6665 32.8108 19.7701ZM23.4627 22.6702C22.6408 22.9809 23.4627 23.7059 23.4627 24.2238C23.3599 24.6381 22.949 24.3274 22.7436 24.5346C22.8463 25.2596 22.3327 25.3632 21.819 25.4667C21.7163 25.881 22.1272 26.1918 21.9218 26.6061C22.5381 27.2275 22.949 27.9525 22.8463 28.7811C23.2572 29.4026 23.1545 30.3348 23.2572 31.0598C23.5654 31.3705 23.7708 31.992 23.7708 32.5098C23.7708 32.8206 23.4627 32.9242 23.3599 33.0277C23.1545 33.3385 23.4627 33.1313 23.4627 33.3385L26.4417 30.2312C25.4145 28.9883 24.5926 27.4347 24.2845 25.7775L23.8736 25.5703C23.7708 25.9846 23.8736 26.6061 23.4627 26.7096C23.2572 26.5025 22.8463 26.3989 22.8463 26.0882C22.949 25.881 23.1545 25.9846 23.3599 25.9846C23.3599 25.7775 23.3599 25.5703 23.3599 25.3632C23.4627 25.156 23.0518 24.9489 23.3599 24.7417C23.6681 24.7417 23.7708 25.0524 23.9763 25.156L24.4899 24.8453C24.3872 24.3274 24.5926 23.4988 24.4899 22.9809C24.2845 22.5666 23.7708 22.6702 23.4627 22.6702ZM45.0352 23.0845H45.3434H45.0352ZM44.727 24.2238L45.3434 24.9489C45.3434 25.6739 46.3706 25.9846 46.4734 26.8132C46.6788 26.0882 46.6788 25.2596 46.8843 24.5346C46.0625 24.3274 45.2407 24.6381 44.727 24.2238ZM52.5342 24.2238L52.637 24.431C52.4315 29.0919 50.4797 33.3384 47.6034 36.5493C48.4252 37.2743 49.3497 38.3101 50.1715 39.1387C53.0479 35.7207 55.1024 31.992 55.8215 27.6418C56.0269 26.5025 56.0269 25.3632 56.3351 24.2238C55.3078 24.5345 53.9724 24.3274 52.8424 24.431L52.5342 24.2238ZM48.0143 24.3274C48.117 24.7417 47.9115 25.156 47.9115 25.6739C47.5006 26.3989 48.5279 26.6061 48.2197 27.3311C48.0143 27.4347 47.8088 27.4347 47.6034 27.3311C47.0897 29.5062 45.9597 31.4741 44.4188 33.2349H44.3161C44.727 33.442 45.0352 34.0635 45.4461 34.1671V33.8563C45.5488 33.7528 45.5488 33.6492 45.7543 33.7528C46.5761 34.0635 46.6788 35.2028 46.7816 35.7207C49.0415 33.3384 50.377 30.5419 51.0961 27.4347C51.3015 26.3989 51.1988 25.156 51.6097 24.3274C50.377 24.431 49.1443 24.5346 48.0143 24.3274ZM20.689 24.3274C20.8945 25.156 21.2027 25.9846 20.9972 26.9168C20.9972 26.5025 21.819 26.0882 21.2027 25.7775C21.5109 25.3632 21.3054 24.5346 21.819 24.5346C21.3054 24.5346 20.9972 24.5346 20.689 24.3274ZM11.4437 24.431C11.6491 30.1276 13.7036 34.9957 17.4018 39.2422C18.2236 38.4136 19.1481 37.3779 19.97 36.6529C19.5591 36.3421 19.2509 35.8243 18.84 35.5135C18.3263 35.41 17.9154 34.8921 17.8127 34.3742C17.8127 34.4778 17.71 34.4778 17.71 34.4778C17.1963 34.6849 17.0936 34.0635 16.6827 33.8563C16.3745 33.7528 16.58 33.0277 16.0664 33.2349C15.7582 32.717 15.1418 32.8206 14.9364 32.1991L14.7309 32.6134C14.32 32.6134 14.0118 32.0955 13.8064 31.8884C12.9846 32.0955 13.2927 30.9562 12.8818 30.6455C12.6764 29.9205 12.8818 29.299 13.2927 28.6776C13.4982 28.4704 14.0118 28.6776 14.1146 28.7811C14.5255 28.8847 14.2173 28.4704 14.5255 28.3668C15.1418 27.849 15.45 28.574 15.7582 28.9883C15.2445 27.5382 14.9364 25.881 15.0391 24.431C13.8064 24.6381 12.5737 24.5346 11.4437 24.431ZM16.0664 24.431L16.1691 24.5346C16.2718 26.0882 16.6827 27.6418 16.8882 29.1954C17.0936 29.0919 16.9909 28.6776 17.1963 28.6776C17.2991 27.9525 17.4018 27.0204 17.9154 26.3989C18.6345 26.3989 18.6345 25.4667 19.3536 25.4667C19.5591 25.5703 19.7645 25.7775 19.8672 25.9846C19.4563 25.5703 19.4563 24.8453 19.6618 24.3274C18.5318 24.6381 17.1963 24.6381 16.0664 24.431ZM25.6199 25.881L25.8254 26.1918C26.1335 27.3311 26.7499 28.2633 27.2635 29.1954L28.2908 28.1597C28.2908 28.0561 28.2908 27.849 28.2908 27.7454C28.0853 27.4347 28.1881 27.0204 27.9826 26.8132C27.8799 27.0204 28.1881 27.2275 28.0853 27.4347C27.7772 27.3311 27.3663 27.1239 27.2635 26.7096C27.3663 26.1918 26.9554 26.6061 26.6472 26.2953C26.5444 25.7775 25.8254 26.1918 25.6199 25.881ZM29.3181 26.7096C29.2153 27.0204 29.0099 27.2275 28.8044 27.5382C29.1126 27.4347 29.3181 26.9168 29.6262 26.9168L29.3181 26.7096ZM59.6224 27.2275C57.5678 31.7848 59.006 37.7922 56.5406 42.1423L56.9515 41.8316C61.8823 39.1387 67.8405 34.4778 66.8132 27.849C66.7105 28.7811 66.4023 29.6097 65.9914 30.3348C64.0396 33.3385 60.7523 35.8243 59.1087 39.0351C59.1087 39.1387 58.9033 39.2422 58.8005 39.1387L59.1087 38.7244C61.5742 35.0992 59.5196 30.9562 59.6224 27.2275ZM38.6662 27.5382C38.1525 28.2633 39.0771 28.1597 39.1798 28.7811C39.2825 28.7811 39.3852 28.7811 39.488 28.7811C39.3852 28.574 39.488 28.2633 39.1798 28.0561C38.8716 28.0561 38.8716 27.5382 38.6662 27.5382ZM7.84824 27.6418C8.15642 29.0919 7.64279 30.4383 7.43734 31.6812C6.71825 34.2706 7.02643 37.1707 8.56733 39.3458C8.05369 39.1387 7.74551 38.5172 7.43734 37.9993C5.58826 34.4778 1.0683 32.5098 0.657392 28.2633C0.657392 29.8169 0.657392 31.3705 1.0683 32.8206C2.30101 37.585 7.54006 39.9673 11.0328 42.3495C8.56733 37.9993 9.90277 32.0956 7.84824 27.6418ZM44.5216 27.849C43.9052 27.3311 44.0079 28.2633 43.4943 28.2633C43.2889 28.2633 43.2889 27.9525 43.1861 27.7454C43.1861 28.2633 42.7752 28.6776 42.467 28.9883C41.4398 28.6776 41.748 30.1276 40.7207 29.8169C40.8234 30.2312 41.337 29.7133 41.5425 29.9205C41.748 29.8169 41.6452 29.6097 41.748 29.5062C41.8507 29.0919 42.3643 28.8847 42.7752 29.0919C42.9807 29.4026 43.0834 29.9205 43.0834 30.3348C42.7752 30.5419 42.7752 30.7491 42.7752 31.0598C42.467 31.5777 42.5698 32.6134 41.6452 32.5098C40.7207 32.1991 39.5907 31.8884 38.5634 31.8884V32.0955C39.2825 32.4063 40.1043 32.4063 40.618 32.9241C41.2343 32.8206 41.9534 33.0277 42.467 32.6134C42.5698 32.1991 42.6725 31.7848 42.9807 31.4741C43.3916 31.4741 43.2889 32.0955 43.4943 32.3027C44.6243 30.8526 45.6516 29.4026 46.0625 27.5382C45.5488 27.5382 45.1379 27.9525 44.5216 27.849ZM30.4481 27.7454L28.2908 30.1276C29.5235 31.0598 30.859 31.7848 32.5026 31.992C32.5026 31.5777 32.5026 31.1634 32.708 30.8526C32.9135 30.7491 33.2217 30.9562 33.4271 30.7491C33.4271 30.5419 33.3244 30.5419 33.1189 30.3348C33.0162 30.024 33.1189 29.7133 33.1189 29.5062C33.2217 29.4026 32.9135 28.9883 33.2217 28.8847C32.5026 29.1954 31.8862 28.7811 31.3726 28.574C31.0644 28.3668 30.4481 28.2633 30.4481 27.7454ZM37.228 30.1276C37.5362 29.8169 38.0498 29.8169 38.1525 29.4026C37.6389 29.4026 37.1253 29.7133 37.228 30.1276ZM38.4607 30.7491C38.2553 30.8526 38.0498 30.8526 37.8444 31.1634C37.5362 31.5777 37.228 31.1634 36.9198 31.0598C37.0225 31.1634 37.228 31.4741 36.9198 31.5777C36.6116 31.8884 36.4062 31.4741 36.098 31.3705C35.9953 32.3027 35.5844 31.0598 35.0707 31.3705C34.8653 30.8526 34.4544 31.4741 34.1462 31.3705C33.838 31.5777 33.838 32.1991 33.3244 32.1991C33.2217 32.5098 32.8108 32.4063 32.708 32.6134C32.9135 32.9241 33.3244 32.717 33.5298 32.717C33.9407 32.3027 34.4544 32.6134 34.968 32.5098C34.968 33.3385 35.8925 32.717 36.098 33.2349C36.4062 33.2349 36.4062 32.9241 36.5089 32.6134C37.228 32.5098 37.8443 32.0955 38.2553 31.5777C38.6662 31.2669 38.7689 30.8526 38.4607 30.7491ZM27.2635 31.0598C26.5444 31.8884 25.7226 32.717 24.9008 33.442H25.0036C26.9554 35.0992 29.4208 36.3421 31.6808 36.6529C30.859 36.5493 30.5508 35.7207 30.1399 35.0992C29.9344 34.5814 30.6535 34.4778 30.5508 33.9599C30.859 33.5456 31.2699 33.2349 31.7835 33.1313C31.4753 33.1313 31.2699 33.2349 30.9617 33.2349C29.6262 32.9241 28.2908 32.3027 27.2635 31.0598ZM57.4651 33.8563L55.616 36.3421C53.1506 39.7601 53.4588 44.5246 49.9661 47.4247C51.7124 46.8032 53.6642 46.5961 55.5133 46.1818C59.6224 45.146 64.0396 41.003 64.6559 36.6529C63.9369 38.4136 62.396 39.7601 60.7523 40.7959C57.9787 42.0388 55.3078 43.5924 52.9451 45.5603H52.637L52.7397 45.3532C56.8487 42.7638 55.8215 37.6886 57.4651 33.8563ZM43.3916 34.1671C41.748 35.41 44.2134 35.41 44.2134 36.4457C44.0079 36.9636 43.0834 37.3779 43.597 37.9993C43.8025 38.2065 43.4943 38.3101 43.4943 38.5172L45.7543 36.5493C45.4461 36.7564 45.1379 36.6529 44.9325 36.3421C45.0352 35.41 43.8025 34.9957 43.3916 34.1671ZM10.0055 34.2706L10.6219 35.9278C11.2382 39.553 11.5464 43.696 14.8336 45.9746C13.8064 45.5603 12.9846 44.6282 11.9573 44.0067C8.87551 41.9352 4.561 41.1066 2.81465 37.1707C3.32828 40.0708 5.28008 42.5567 7.54006 44.3174C10.3137 46.8032 14.2173 46.5961 17.6073 47.6318C16.3745 46.6997 15.6554 45.5603 15.0391 44.2139C13.8064 40.6923 12.6764 37.0672 10.0055 34.2706ZM24.7981 34.9957L25.1063 35.3064L24.7981 34.9957ZM25.1063 35.41C25.1063 35.8243 25.6199 35.8243 25.4145 36.2386C24.6954 36.6529 23.7708 36.3421 23.0517 36.9636C22.4354 37.2743 21.819 36.5493 21.5109 36.5493C24.6954 39.3458 28.4962 41.2102 32.8108 41.4173L33.1189 41.5209C32.9135 40.4851 33.0162 39.2422 33.1189 38.1029C30.0371 38.3101 27.3663 37.1707 25.1063 35.41ZM46.6788 37.3779C46.1652 37.9993 45.5488 38.6208 44.8297 39.0351C42.5698 39.8637 42.3643 42.4531 40.1043 43.2817C39.1798 43.5924 38.7689 42.4531 37.9471 42.3495C36.7144 42.5567 35.4816 42.8674 34.3517 42.6602V46.3889L34.4544 46.2854C40.1043 46.0782 45.2407 43.7996 49.247 39.9673C48.3224 39.1387 47.3979 38.2065 46.6788 37.3779ZM20.7918 37.585L18.3263 40.1744C22.5381 43.9031 27.469 45.9746 33.1189 46.2854L33.0162 45.9746C33.0162 44.8353 32.9135 43.696 33.1189 42.6602V42.7638C28.2908 42.6602 24.079 40.8994 20.7918 37.585ZM34.1462 38.4136L34.3517 38.8279V41.6245C35.1735 41.3137 36.3035 41.3137 37.0225 41.2102C36.6116 40.7959 35.8926 40.7959 35.7898 40.1744C35.4816 39.7601 35.8925 39.2422 35.8925 38.9315C35.2762 38.6208 34.5571 38.9315 34.1462 38.4136ZM52.8424 41.1066C50.2742 42.7638 48.117 45.5603 45.857 47.4247C44.6243 48.3569 43.0834 48.6676 41.5425 49.0819C44.8297 49.289 47.6034 50.9463 50.9933 50.6355C54.6915 50.532 58.0815 48.3569 59.8278 45.0425C57.2596 48.1497 53.1506 47.9426 49.4524 48.2533C48.2197 48.3569 46.987 48.7712 45.7543 48.7712L45.857 48.6676C49.9661 48.3569 51.0961 43.9031 52.8424 41.1066ZM14.7309 41.3137C16.3745 43.2817 16.4773 45.9746 18.84 47.6318C19.7645 48.4604 20.9972 48.564 21.9218 48.9783C20.7918 49.0819 19.7645 48.6676 18.6345 48.564C14.8336 48.1497 10.5191 48.564 7.74551 45.4568C8.97823 47.6318 11.2382 49.5998 13.4982 50.3248C17.9154 51.982 21.819 49.4962 26.0308 49.1855C21.3054 48.9783 18.6345 43.5924 14.7309 41.3137ZM46.3706 51.6713C42.5698 49.9105 38.2553 48.0461 33.838 49.7033C31.578 48.9783 28.7017 48.9783 26.5444 49.7033C22.6408 51.4641 17.4018 54.1571 13.2927 51.1534C14.0118 52.0856 14.9364 52.4999 15.7582 53.1213C18.4291 54.8821 22.2299 54.675 24.9008 53.2249C27.3663 52.1892 29.3181 48.9783 32.5026 50.0141C29.8317 51.3605 27.3663 53.0178 25.1063 55.4L26.4417 56.5393C28.3935 53.9499 31.0644 51.6713 33.9408 50.4284C36.7144 51.7749 39.2825 54.0535 41.337 56.4357L42.6725 55.2964C40.5152 53.1213 37.9471 51.4641 35.2762 50.0141C35.9953 49.8069 36.8171 49.9105 37.5362 49.9105C40.4125 51.1534 42.5698 53.7428 45.857 54.0535C49.247 54.5714 52.3288 53.2249 54.486 50.7391L52.8424 51.5677C50.8906 52.6035 48.3224 52.2927 46.3706 51.6713Z" fill="white"/>
<path d="M90.1909 20.8056C91.7318 20.8056 92.5536 19.7698 92.5536 18.5269V12.7267H93.6836V18.5269C93.6836 20.4949 92.2454 21.9449 90.2936 21.9449C88.2391 21.9449 86.9036 20.5984 86.9036 18.5269V12.7267H88.0336V18.5269C87.9309 19.8734 88.7527 20.8056 90.1909 20.8056Z" fill="white"/>
<path d="M102.621 21.7378H101.388L96.5597 14.3839V21.7378H95.4297V12.7267H96.6625L101.491 20.0806V12.7267H102.621V21.7378Z" fill="white"/>
<path d="M105.805 21.7378H104.675V12.7267H105.805V21.7378Z" fill="white"/>
<path d="M111.044 13.7625V21.7378H109.914V13.7625H107.141V12.7267H113.818V13.7625H111.044Z" fill="white"/>
<path d="M121.42 12.7267V13.7625H116.181V16.559H120.906V17.5948H116.181V20.702H121.42V21.7378H115.051V12.7267H121.42Z" fill="white"/>
<path d="M122.858 12.7267H126.145C128.61 12.7267 130.151 14.3839 130.151 17.1805C130.151 19.977 128.61 21.7378 126.145 21.7378H122.858V12.7267ZM123.885 13.7625V20.702H126.145C127.789 20.702 129.124 19.6663 129.124 17.284C129.124 14.7982 127.789 13.866 126.145 13.866H123.885V13.7625Z" fill="white"/>
<path d="M142.478 21.7378H141.246L136.418 14.3839V21.7378H135.288V12.7267H136.52L141.348 20.0806V12.7267H142.478V21.7378Z" fill="white"/>
<path d="M145.766 19.1484L144.841 21.7378H143.608L146.998 12.7267H148.231L151.518 21.7378H150.286L149.361 19.1484H145.766ZM147.615 14.0732L146.177 18.1126H149.053L147.615 14.0732Z" fill="white"/>
<path d="M154.908 13.7625V21.7378H153.778V13.7625H151.005V12.7267H157.682V13.7625H154.908Z" fill="white"/>
<path d="M160.045 21.7378H158.915V12.7267H160.045V21.7378Z" fill="white"/>
<path d="M170.42 17.1807C170.42 19.7701 168.468 21.8416 166.003 21.8416C163.537 21.8416 161.586 19.7701 161.586 17.1807C161.586 14.5913 163.537 12.5198 166.003 12.5198C168.571 12.5198 170.42 14.4877 170.42 17.1807ZM169.393 17.1807C169.393 15.1092 167.955 13.5556 166.003 13.5556C164.154 13.5556 162.613 15.1092 162.613 17.1807C162.613 19.2522 164.154 20.8058 166.003 20.8058C167.852 20.8058 169.393 19.2522 169.393 17.1807Z" fill="white"/>
<path d="M179.049 21.7378H177.816L172.988 14.3839V21.7378H171.858V12.7267H173.091L177.919 20.0806V12.7267H179.049V21.7378Z" fill="white"/>
<path d="M183.877 21.9452C181.823 21.9452 180.487 20.7023 180.487 18.9415H181.617C181.617 20.1844 182.542 20.9094 183.877 20.9094C185.418 20.9094 186.137 20.288 186.137 19.2522C186.137 18.5272 185.829 18.0093 183.877 17.595C181.925 17.2843 180.795 16.6628 180.795 15.1092C180.795 13.5556 182.028 12.5198 183.877 12.5198C185.829 12.5198 187.062 13.5556 187.062 15.3163H185.932C185.932 14.2806 185.213 13.5556 183.877 13.5556C182.542 13.5556 181.823 14.177 181.823 15.0056C181.823 15.8342 182.234 16.1449 184.083 16.5592C186.034 16.9735 187.267 17.4914 187.267 19.2522C187.267 20.9094 185.932 21.9452 183.877 21.9452Z" fill="white"/>
<path d="M89.0606 45.0428H86.8007V26.3992H94.6079C98.4088 26.3992 100.566 28.7814 100.566 31.9923C100.566 35.3067 98.4088 37.5853 94.6079 37.5853H89.0606V45.0428ZM89.0606 28.5743V35.5138H94.6079C96.7651 35.5138 98.306 34.4781 98.306 32.0958C98.306 29.61 96.7651 28.6779 94.6079 28.6779H89.0606V28.5743Z" fill="white"/>
<path d="M115.049 40.7959C114.124 43.7995 111.762 45.4567 108.577 45.4567C104.674 45.4567 101.592 42.2459 101.592 38.2065C101.592 34.167 104.674 30.9562 108.474 30.9562C111.967 30.9562 115.46 33.9599 115.357 38.8279H103.852C104.16 41.728 106.317 43.3852 108.577 43.3852C110.529 43.3852 111.864 42.4531 112.686 40.7959H115.049ZM112.892 36.7564C112.378 34.4778 110.426 33.0277 108.474 33.0277C106.625 33.0277 104.571 34.3742 103.954 36.7564H112.892Z" fill="white"/>
<path d="M131.178 45.0426H129.021V42.7639C128.097 44.214 126.35 45.3533 124.296 45.3533C120.392 45.3533 117.413 42.1425 117.413 38.103C117.413 34.0636 120.392 30.8528 124.296 30.8528C126.35 30.8528 128.097 31.9921 129.021 33.4421V31.2671H131.178V45.0426ZM124.193 33.0278C121.625 33.0278 119.57 35.3065 119.57 38.2066C119.57 41.0031 121.625 43.2818 124.193 43.2818C126.761 43.2818 128.816 41.0031 128.816 38.2066C128.918 35.4101 126.761 33.0278 124.193 33.0278Z" fill="white"/>
<path d="M140.116 45.3533C136.315 45.3533 133.233 42.1425 133.233 38.103C133.233 34.0636 136.315 30.8528 140.116 30.8528C143.197 30.8528 145.56 32.7171 146.485 35.5136H144.122C143.3 33.96 141.965 33.0278 140.116 33.0278C137.547 33.0278 135.493 35.4101 135.493 38.2066C135.493 41.0031 137.547 43.3854 140.116 43.3854C141.965 43.3854 143.3 42.3496 144.122 40.8996H146.587C145.56 43.5925 143.197 45.3533 140.116 45.3533Z" fill="white"/>
<path d="M161.585 40.7959C160.661 43.7995 158.298 45.4567 155.114 45.4567C151.21 45.4567 148.128 42.2459 148.128 38.2065C148.128 34.167 151.21 30.9562 155.011 30.9562C158.503 30.9562 161.996 33.9599 161.893 38.8279H150.388C150.696 41.728 152.854 43.3852 155.114 43.3852C157.065 43.3852 158.401 42.4531 159.223 40.7959H161.585ZM159.428 36.7564C158.914 34.4778 156.963 33.0277 155.011 33.0277C153.162 33.0277 151.107 34.3742 150.491 36.7564H159.428Z" fill="white"/>
<path d="M183.569 45.0424H181.309V36.4457C181.309 34.2706 180.282 33.0277 178.227 33.0277C176.378 33.0277 175.043 34.5813 175.043 36.6528V45.146H172.783V36.5493C172.783 34.3742 171.755 33.1313 169.701 33.1313C167.852 33.1313 166.414 34.6849 166.414 36.7564V45.2496H164.154V31.2669H166.311V32.8206C167.133 31.6812 168.468 30.9562 170.009 30.9562C171.961 30.9562 173.399 31.8884 174.221 33.3384C175.043 31.8884 176.583 30.9562 178.535 30.9562C181.72 30.9562 183.672 33.1313 183.672 36.5493V45.0424H183.569Z" fill="white"/>
<path d="M199.697 45.0426H197.54V42.7639C196.615 44.214 194.869 45.3533 192.814 45.3533C188.911 45.3533 185.931 42.1425 185.931 38.103C185.931 34.0636 188.911 30.8528 192.814 30.8528C194.869 30.8528 196.615 31.9921 197.54 33.4421V31.2671H199.697V45.0426ZM192.711 33.0278C190.143 33.0278 188.089 35.3065 188.089 38.2066C188.089 41.0031 190.143 43.2818 192.711 43.2818C195.28 43.2818 197.334 41.0031 197.334 38.2066C197.437 35.4101 195.28 33.0278 192.711 33.0278Z" fill="white"/>
<path d="M215.003 45.0426H212.23L207.504 37.9995L204.833 40.5888V45.0426H202.676V25.0526H204.936V37.378L211.202 31.1635H214.49L209.148 36.3423L215.003 45.0426Z" fill="white"/>
<path d="M228.562 40.7959C227.637 43.7995 225.274 45.4567 222.09 45.4567C218.186 45.4567 215.104 42.2459 215.104 38.2065C215.104 34.167 218.186 30.9562 221.987 30.9562C225.48 30.9562 228.972 33.9599 228.87 38.8279H217.364C217.673 41.728 219.83 43.3852 222.09 43.3852C224.042 43.3852 225.377 42.4531 226.199 40.7959H228.562ZM226.302 36.7564C225.788 34.4778 223.836 33.0277 221.884 33.0277C220.035 33.0277 217.981 34.3742 217.364 36.7564H226.302Z" fill="white"/>
<path d="M237.91 33.1312C235.547 33.0276 233.492 34.2705 233.492 37.067V45.0423H231.232V31.2668H233.39V32.8204C234.417 31.3704 236.266 30.7489 237.91 30.9561V33.1312Z" fill="white"/>
</svg>
